# Blender v2.82 (sub 7) OBJ File: ''
# www.blender.org

mtllib tile_riverStraight.mtl

o tile_riverStraight

v -0.500000 -0.000000 0.500000
v 0.500000 0.000000 -0.500000
v 0.500000 -0.000000 0.500000
v -0.500000 0.000000 -0.500000
v 0.500000 0.100000 0.500000
v 0.500000 0.100000 -0.500000
v -0.500000 0.100000 -0.500000
v -0.500000 0.100000 0.500000
v -0.499579 0.150000 0.500000
v 0.250000 0.100000 0.500000
v 0.375000 0.100000 0.500000
v 0.250000 0.150000 0.500000
v -0.499579 0.100000 -0.500000
v -0.250000 0.100000 0.500000
v -0.375000 0.100000 0.500000
v -0.250000 0.150000 0.500000
v 0.497507 0.100000 0.500000
v -0.250000 0.100000 -0.500000
v -0.375000 0.100000 -0.500000
v -0.250000 0.150000 -0.500000
v 0.250000 0.100000 -0.500000
v 0.375000 0.100000 -0.500000
v 0.250000 0.150000 -0.500000
v -0.499579 0.100000 0.500000
v -0.499579 0.150000 -0.500000
v 0.497507 0.150000 0.500000
v 0.497507 0.100000 -0.500000
v 0.497507 0.150000 -0.500000
v 0.499448 0.150000 0.500000
v 0.499448 0.150000 -0.500000
v 0.499448 0.100000 0.500000
v 0.499448 0.100000 -0.500000
v 0.250000 0.140000 -0.500000
v 0.497507 0.140000 -0.500000
v 0.497507 0.140000 0.500000
v 0.250000 0.140000 0.500000
v -0.250000 0.140000 -0.500000
v -0.250000 0.140000 0.500000
v -0.250000 0.140000 0.500000
v -0.499579 0.140000 0.500000
v -0.499579 0.140000 -0.500000
v -0.250000 0.140000 -0.500000

vt 0.000000 0.000000
vt 0.000000 0.000000
vt 0.000000 0.000000
vt 0.000000 0.000000
vt 0.000000 0.000000
vt 0.000000 0.000000
vt 0.000000 0.000000
vt 0.000000 0.000000
vt 0.000000 0.000000
vt 0.000000 0.000000
vt -19.685040 19.685040
vt 19.685040 -19.685040
vt 19.685040 19.685040
vt -19.685040 -19.685040
vt -19.685040 3.937008
vt 19.685040 0.000000
vt 19.685040 3.937008
vt -19.685040 0.000000
vt 19.685040 0.000000
vt -19.685040 3.937008
vt -19.685040 0.000000
vt 19.685040 3.937008
vt -19.685040 3.937008
vt 14.763780 3.937008
vt 9.842520 3.937008
vt 19.685040 3.937008
vt -19.685040 0.000000
vt 19.685040 0.000000
vt -9.842520 3.937008
vt -14.763780 3.937008
vt -19.685040 3.937008
vt 14.763780 3.937008
vt 9.842520 3.937008
vt 19.685040 3.937008
vt -19.685040 0.000000
vt 19.685040 0.000000
vt -9.842520 3.937008
vt -14.763780 3.937008
vt 9.842520 19.685040
vt 9.842520 -19.685040
vt 9.842520 3.937008
vt -9.842520 3.937008
vt 9.842520 19.685040
vt 9.842520 -19.685040
vt 9.842520 5.905512
vt 9.842520 3.937008
vt 9.842520 5.905512
vt -9.842520 5.905512
vt -9.842520 5.905512
vt -9.842520 3.937008
vt -9.842520 -19.685040
vt -9.842520 19.685040
vt -9.842520 19.685040
vt -9.842520 -19.685040
vt 9.842520 5.905512
vt 9.842520 5.905512
vt -9.842520 -19.685040
vt -9.842520 19.685040
vt -9.842520 5.905512
vt -9.842520 5.905512
vt 9.842520 3.937008
vt -9.842520 3.937008
vt 9.842520 5.905512
vt -9.842520 5.905512
vt -9.842520 -19.685040
vt -9.842520 -19.685040
vt -9.842520 19.685040
vt -9.842520 19.685040
vt 9.842520 -19.685040
vt 9.842520 19.685040
vt 9.842520 5.905512
vt 9.842520 5.905512
vt -9.842520 5.905512
vt -9.842520 5.905512
vt 9.842520 19.685040
vt 9.842520 19.685040
vt 9.842520 -19.685040
vt 9.842520 -19.685040

vn 0.0000 -1.0000 -0.0000
vn 1.0000 0.0000 0.0000
vn -1.0000 0.0000 0.0000
vn 0.0000 0.0000 1.0000
vn 0.0000 0.0000 -1.0000
vn -0.7071 0.0000 0.7071
vn -0.7071 0.0000 -0.7071
vn 0.0000 1.0000 0.0000
vn 0.0000 0.4472 0.8944
vn 0.0000 0.4472 -0.8944
vn 0.5774 0.5774 0.5774
vn 0.5774 0.5774 -0.5774
vn 0.7071 0.0000 0.7071
vn 0.7071 0.0000 -0.7071
vn 0.0000 -0.7071 -0.7071
vn 0.5774 -0.5774 -0.5774
vn 0.5774 -0.5774 0.5774
vn 0.0000 -0.7071 0.7071
vn -0.5774 -0.5774 0.5774
vn -0.5774 -0.5774 -0.5774

usemtl dirt

f 18/1/1 14/2/1 24/3/1 13/4/1
f 10/5/1 21/6/1 27/7/1 17/8/1
f 17/8/1 27/7/1 32/9/1 31/10/1
s 1
f 1/11/1 2/12/1 3/13/1
f 2/12/1 1/11/1 4/14/1
f 5/15/2 2/16/2 6/17/2
f 2/16/2 5/15/2 3/18/2
f 1/19/3 7/20/3 4/21/3
f 7/20/3 1/19/3 8/22/3
f 8/23/4 11/24/4 10/25/4
f 8/23/4 5/26/4 11/24/4
f 1/27/4 5/26/4 8/23/4
f 5/26/4 1/27/4 3/28/4
f 8/23/4 10/25/4 14/29/4
f 8/23/4 14/29/4 15/30/4
f 6/31/5 19/32/4 18/33/1
f 6/31/5 7/34/5 19/32/4
f 2/35/5 7/34/5 6/31/5
f 7/34/5 2/35/5 4/36/5
f 6/31/5 18/33/1 21/37/5
f 6/31/5 21/37/5 22/38/4

usemtl water

f 9/39/6 25/40/7 13/41/7 24/42/6
f 16/43/8 20/44/8 25/40/8 9/39/8
f 12/45/4 10/25/4 17/46/4 26/47/9
f 21/37/5 23/48/5 28/49/10 27/50/5
f 28/51/10 26/52/9 29/53/11 30/54/12
f 20/55/5 18/33/1 13/41/7 25/56/7
f 23/57/8 12/58/8 26/52/8 28/51/8
f 14/29/4 16/59/4 9/60/6 24/42/6
f 20/44/8 12/58/8 23/57/8
f 12/58/8 20/44/8 16/43/8
f 20/55/5 21/37/5 18/33/1
f 21/37/5 20/55/5 23/48/5
f 12/45/4 14/29/4 10/25/4
f 14/29/4 12/45/4 16/59/4
f 29/53/11 31/61/13 32/62/14 30/54/12
f 26/47/9 17/46/4 31/61/13 29/63/11
f 27/50/5 28/49/10 30/64/12 32/62/14
f 33/65/15 34/66/16 35/67/17 36/68/18
f 37/69/1 33/65/1 36/68/1
f 36/68/1 38/70/1 37/69/1
f 16/43/6 20/44/7 37/69/7 38/70/6
f 12/58/4 16/43/6 38/70/6 36/68/4
f 26/47/13 12/45/4 36/71/18 35/72/17
f 20/44/7 23/57/5 33/65/5 37/69/7
f 28/51/14 26/52/13 35/67/17 34/66/16
f 23/48/5 28/49/14 34/73/16 33/74/15
f 39/75/17 40/76/19 41/77/20 42/78/16
f 16/43/13 9/39/6 40/76/19 39/75/17
f 25/40/7 20/44/14 42/78/16 41/77/20
f 9/39/6 25/40/7 41/77/20 40/76/19
f 20/44/14 16/43/13 39/75/17 42/78/16
