# Blender v2.82 (sub 7) OBJ File: ''
# www.blender.org

mtllib tile_endSpawn.mtl

o tile_endSpawn

v -0.500000 0.100000 -0.500000
v 0.500000 0.000000 -0.500000
v -0.500000 0.000000 -0.500000
v 0.500000 0.100000 -0.500000
v 0.500000 0.100000 0.500000
v 0.500000 -0.000000 0.500000
v -0.500000 -0.000000 0.500000
v -0.500000 0.100000 0.500000
v 0.281250 0.150000 0.281250
v -0.281250 0.150000 0.500000
v 0.281250 0.150000 0.500000
v -0.281250 0.150000 0.281250
v 0.375000 0.150000 0.500000
v 0.500000 0.151003 0.500000
v 0.375000 0.151003 0.500000
v -0.375000 0.150000 0.500000
v -0.500000 0.151003 0.500000
v -0.375000 0.151003 0.500000
v -0.500000 0.151003 -0.500000
v 0.500000 0.151003 -0.500000
v 0.375000 0.151003 -0.375000
v -0.375000 0.151003 -0.375000
v 0.375000 0.150000 -0.375000
v -0.375000 0.150000 -0.375000
v 0.281250 0.150000 -0.281250
v -0.281250 0.150000 -0.281250
v 0.180349 0.150000 -0.180349
v -0.180349 0.150000 -0.180349
v 0.180349 0.150000 0.180349
v -0.180349 0.150000 0.180349
v -0.144279 0.100000 -0.144279
v 0.144279 0.100000 0.144279
v 0.144279 0.100000 -0.144279
v -0.144279 0.100000 0.144279

vt 19.685040 3.937008
vt -19.685040 0.000000
vt 19.685040 0.000000
vt -19.685040 3.937008
vt -19.685040 3.937008
vt 19.685040 0.000000
vt 19.685040 3.937008
vt -19.685040 0.000000
vt 19.685040 3.937008
vt -19.685040 0.000000
vt 19.685040 0.000000
vt -19.685040 3.937008
vt 19.685040 0.000000
vt -19.685040 3.937008
vt -19.685040 0.000000
vt 19.685040 3.937008
vt -19.685040 19.685040
vt 19.685040 -19.685040
vt 19.685040 19.685040
vt -19.685040 -19.685040
vt -11.072830 11.072830
vt 11.072830 19.685040
vt -11.072830 19.685040
vt 11.072830 11.072830
vt 14.763780 5.905512
vt 19.685040 7.874016
vt 14.763780 7.874016
vt -14.763780 5.905512
vt -19.685040 7.874016
vt 11.072830 5.905512
vt -11.072830 5.905512
vt -14.763780 7.874016
vt 19.685040 7.874016
vt -19.685040 7.874016
vt -19.685040 7.874016
vt 19.685040 7.874016
vt -19.685040 7.874016
vt 19.685040 7.874016
vt -19.685040 -19.685040
vt -14.763780 19.685040
vt -19.685040 19.685040
vt -14.763780 -14.763780
vt 19.685040 -19.685040
vt 14.763780 -14.763780
vt 19.685040 19.685040
vt 14.763780 19.685040
vt 19.685040 5.905512
vt -14.763780 7.874016
vt -14.763780 5.905512
vt 19.685040 7.874016
vt 14.763780 7.874016
vt -14.763780 5.905512
vt 14.763780 5.905512
vt -14.763780 7.874016
vt -14.763780 -14.763780
vt -14.763780 19.685040
vt -11.072830 -11.072830
vt 14.763780 -14.763780
vt 11.072830 -11.072830
vt 14.763780 19.685040
vt -19.685040 7.874016
vt 14.763780 5.905512
vt 14.763780 7.874016
vt -19.685040 5.905512
vt -7.100349 -7.100349
vt 7.100349 -7.100349
vt -7.100349 7.100349
vt 7.100349 7.100349
vt 5.680280 -5.680280
vt -5.680280 5.680280
vt -5.680280 -5.680280
vt 5.680280 5.680280
vt -7.100349 8.943413
vt 5.680280 6.516150
vt 7.100349 8.943413
vt -5.680280 6.516150
vt -5.680280 6.516150
vt 7.100349 8.943413
vt -7.100349 8.943413
vt 5.680280 6.516150
vt 7.100349 8.943413
vt -5.680280 6.516150
vt 5.680280 6.516150
vt -7.100349 8.943413
vt 7.100349 8.943413
vt -5.680280 6.516150
vt 5.680280 6.516150
vt -7.100349 8.943413

vn 0.0000 0.0000 -1.0000
vn 1.0000 0.0000 0.0000
vn 0.0000 0.0000 1.0000
vn -1.0000 0.0000 0.0000
vn 0.0000 -1.0000 -0.0000
vn -0.6900 0.5198 -0.5037
vn 0.0000 1.0000 0.0000
vn 0.8110 0.5851 0.0000
vn 0.8110 0.5850 0.0000
vn -0.8110 0.5850 0.0000
vn -0.8110 0.5851 0.0000
vn 0.0000 0.5851 -0.8110
vn 0.0000 0.5851 0.8110
vn 0.0000 0.5850 0.8110

usemtl dirt

f 1/1/1 2/2/1 3/3/1
f 2/2/1 1/1/1 4/4/1
f 5/5/2 2/6/2 4/7/2
f 2/6/2 5/5/2 6/8/2
f 5/9/3 7/10/3 6/11/3
f 7/10/3 5/9/3 8/12/3
f 7/13/4 1/14/4 3/15/4
f 1/14/4 7/13/4 8/16/4
f 7/17/5 2/18/5 6/19/5
f 2/18/5 7/17/5 3/20/5
f 9/21/6 10/22/7 11/23/7
f 10/22/7 9/21/6 12/24/7
f 5/9/3 13/25/3 8/12/3
f 13/25/3 5/9/3 14/26/3
f 13/25/3 14/26/3 15/27/3
f 16/28/3 8/12/3 13/25/3
f 8/12/3 16/28/3 17/29/3
f 16/28/3 13/25/3 11/30/3
f 16/28/3 11/30/3 10/31/3
f 17/29/3 16/28/3 18/32/3
f 19/33/1 4/4/1 1/1/1
f 4/4/1 19/33/1 20/34/1
f 14/35/2 4/7/2 20/36/2
f 4/7/2 14/35/2 5/5/2
f 8/16/4 19/37/4 1/14/4
f 19/37/4 8/16/4 17/38/4
f 20/39/7 15/40/7 14/41/7
f 15/40/7 20/39/7 21/42/7
f 21/42/7 20/39/7 19/43/7
f 21/42/7 19/43/7 22/44/7
f 22/44/7 19/43/7 17/45/7
f 17/45/7 18/46/7 22/44/7
f 13/47/4 21/48/4 23/49/4
f 21/48/4 13/47/4 15/50/4
f 21/51/3 24/52/3 23/53/3
f 24/52/3 21/51/3 22/54/3
f 23/55/7 11/23/7 13/56/7
f 11/23/7 23/55/7 25/57/7
f 25/57/7 23/55/7 24/58/7
f 25/57/7 24/58/7 26/59/7
f 26/59/7 24/58/7 16/60/7
f 16/60/7 12/24/7 26/59/7
f 12/24/7 16/60/7 10/22/7
f 9/21/6 11/23/7 25/57/7
f 18/61/2 24/62/2 22/63/2
f 24/62/2 18/61/2 16/64/2

usemtl stone

f 25/57/7 27/65/7 9/21/6
f 27/65/7 25/57/7 26/59/7
f 27/65/7 26/59/7 28/66/7
f 28/66/7 26/59/7 12/24/7
f 9/21/6 29/67/7 12/24/7
f 29/67/7 9/21/6 27/65/7
f 12/24/7 29/67/7 30/68/7
f 12/24/7 30/68/7 28/66/7

usemtl stoneDark

f 31/69/7 32/70/7 33/71/7
f 32/70/7 31/69/7 34/72/7
f 30/73/8 31/74/9 28/75/9
f 31/74/9 30/73/8 34/76/8
f 33/77/10 29/78/11 27/79/10
f 29/78/11 33/77/10 32/80/11
f 30/81/12 32/82/12 34/83/12
f 32/82/12 30/81/12 29/84/12
f 27/85/13 31/86/14 33/87/13
f 31/86/14 27/85/13 28/88/13
